<?xml version="1.0" standalone="no"?>
<svg xmlns:xlink="http://www.w3.org/1999/xlink" id="wave" style="transform:rotate(180deg); transition: 0.3s" viewBox="0 0 1440 110" version="1.1" xmlns="http://www.w3.org/2000/svg"><defs><linearGradient id="sw-gradient-0" x1="0" x2="0" y1="1" y2="0"><stop stop-color="rgba(255, 249, 234, 1)" offset="0%"/><stop stop-color="rgba(255, 249, 234, 1)" offset="100%"/></linearGradient></defs><path style="transform:translate(0, 0px); opacity:1" fill="url(#sw-gradient-0)" d="M0,55L30,62.3C60,70,120,84,180,88C240,92,300,84,360,78.8C420,73,480,70,540,58.7C600,48,660,29,720,29.3C780,29,840,48,900,49.5C960,51,1020,37,1080,40.3C1140,44,1200,66,1260,73.3C1320,81,1380,73,1440,69.7C1500,66,1560,66,1620,67.8C1680,70,1740,73,1800,75.2C1860,77,1920,77,1980,77C2040,77,2100,77,2160,73.3C2220,70,2280,62,2340,56.8C2400,51,2460,48,2520,51.3C2580,55,2640,66,2700,60.5C2760,55,2820,33,2880,25.7C2940,18,3000,26,3060,29.3C3120,33,3180,33,3240,36.7C3300,40,3360,48,3420,44C3480,40,3540,26,3600,33C3660,40,3720,70,3780,67.8C3840,66,3900,33,3960,20.2C4020,7,4080,15,4140,25.7C4200,37,4260,51,4290,58.7L4320,66L4320,110L4290,110C4260,110,4200,110,4140,110C4080,110,4020,110,3960,110C3900,110,3840,110,3780,110C3720,110,3660,110,3600,110C3540,110,3480,110,3420,110C3360,110,3300,110,3240,110C3180,110,3120,110,3060,110C3000,110,2940,110,2880,110C2820,110,2760,110,2700,110C2640,110,2580,110,2520,110C2460,110,2400,110,2340,110C2280,110,2220,110,2160,110C2100,110,2040,110,1980,110C1920,110,1860,110,1800,110C1740,110,1680,110,1620,110C1560,110,1500,110,1440,110C1380,110,1320,110,1260,110C1200,110,1140,110,1080,110C1020,110,960,110,900,110C840,110,780,110,720,110C660,110,600,110,540,110C480,110,420,110,360,110C300,110,240,110,180,110C120,110,60,110,30,110L0,110Z"/></svg>